<?xml version="1.0" encoding="UTF-8" standalone="no"?>
<svg
   width="128"
   height="128"
   version="1.1"
   id="svg6"
   sodipodi:docname="icon.svg"
   xml:space="preserve"
   inkscape:export-filename="icon.svg"
   inkscape:export-xdpi="96"
   inkscape:export-ydpi="96"
   xmlns:inkscape="http://www.inkscape.org/namespaces/inkscape"
   xmlns:sodipodi="http://sodipodi.sourceforge.net/DTD/sodipodi-0.dtd"
   xmlns="http://www.w3.org/2000/svg"
   xmlns:svg="http://www.w3.org/2000/svg"><defs
     id="defs6" /><sodipodi:namedview
     id="namedview6"
     pagecolor="#505050"
     bordercolor="#ffffff"
     borderopacity="1"
     inkscape:showpageshadow="0"
     inkscape:pageopacity="0"
     inkscape:pagecheckerboard="1"
     inkscape:deskcolor="#d1d1d1"><inkscape:page
       x="0"
       y="0"
       width="128"
       height="128"
       id="page2"
       margin="0"
       bleed="0" /></sodipodi:namedview><rect
     width="124"
     height="124"
     x="2"
     y="2"
     fill="#363d52"
     stroke="#212532"
     stroke-width="4"
     rx="14"
     id="rect1"
     style="display:none" /><g
     fill="#ffffff"
     transform="matrix(0.101,0,0,0.101,12.322,12.322)"
     id="g4"
     style="display:none"><path
       d="m 105,673 v 33 q 407,354 814,0 v -33 z"
       id="path1"
       style="display:inline" /><path
       fill="#478cbf"
       d="m 105,673 152,14 q 12,1 15,14 l 4,67 132,10 8,-61 q 2,-11 15,-15 h 162 q 13,4 15,15 l 8,61 132,-10 4,-67 q 3,-13 15,-14 L 919,673 V 427 q 30,-39 56,-81 -35,-59 -83,-108 -43,20 -82,47 -40,-37 -88,-64 7,-51 8,-102 -59,-28 -123,-42 -26,43 -46,89 -49,-7 -98,0 -20,-46 -46,-89 -64,14 -123,42 1,51 8,102 -48,27 -88,64 -39,-27 -82,-47 -48,49 -83,108 26,42 56,81 z m 0,33 v 39 c 0,276 813,276 814,0 v -39 l -134,12 -5,69 q -2,10 -14,13 l -162,11 q -12,0 -16,-11 L 578,735 H 446 l -10,65 q -4,11 -16,11 L 258,800 q -12,-3 -14,-13 l -5,-69 z"
       id="path2"
       style="display:inline" /><path
       d="m 483,600 c 0,34 58,34 58,0 v -86 c 0,-34 -58,-34 -58,0 z"
       id="path3"
       style="display:inline" /><circle
       cx="725"
       cy="526"
       r="90"
       id="circle3" /><circle
       cx="299"
       cy="526"
       r="90"
       id="circle4"
       style="display:inline" /></g><g
     fill="#414042"
     transform="matrix(0.101,0,0,0.101,12.322,12.322)"
     id="g6"
     style="display:none"><circle
       cx="307"
       cy="532"
       r="60"
       id="circle5" /><circle
       cx="717"
       cy="532"
       r="60"
       id="circle6" /></g><path
     fill="#000000"
     d="M 67.429374,66.023005 55.153588,78.299079 A 68.978643,68.978643 0 0 0 107.5283,88.958282 l -3.31462,-16.61906 A 51.999434,51.999434 0 0 1 67.429374,66.023005 Z m -33.63521,61.893845 1.748945,-0.36393 a 6.3400749,6.3400749 0 0 0 4.910548,-7.50778 l -2.782255,-13.30678 a 4.2269105,4.2269105 0 0 1 1.14822,-3.85193 L 50.021079,91.684977 a 5.0981835,5.0981835 0 0 0 0,-7.209894 L 45.438679,79.892679 66.367848,58.96351 53.055846,45.651505 43.666749,55.040307 a 2.9739648,2.9739648 0 0 0 -4.205674,4.205676 l 1.631999,1.632 -29.122046,29.121463 0.0029,7.589242 8.922764,8.709232 c 4.56204,-1.6957 4.513747,0.75085 5.616004,6.01804 l 2.624877,12.54837 a 3.9389104,3.9389104 0 0 0 4.66124,3.05252 z M 32.9642,96.944616 a 2.9632009,2.9632009 0 0 1 0,-4.190551 l 5.875782,-5.875784 a 2.9632009,2.9632009 0 0 1 4.190257,0 l 2.107929,2.107928 a 2.9632009,2.9632009 0 0 1 0,4.190543 l -5.883347,5.88335 a 2.9632009,2.9632009 0 0 1 -4.190257,0 L 32.958962,96.95479 Z M 60.990973,45.542122 A 3.0784011,3.0784011 0 0 1 60.665155,45.149977 3.4996377,3.4996377 0 0 1 61.18181,40.672011 L 85.227201,16.626618 c 1.397528,-1.397527 3.576729,-1.484215 4.869819,-0.190834 l 7.197094,7.197092 c 1.23229,1.232002 1.219489,3.286403 -0.02793,4.697023 l -22.56582,25.513898 c -1.245094,1.408001 -3.26633,1.667493 -4.638551,0.68742 a 3.0853827,3.0853827 0 0 1 -0.392146,-0.325819 l -8.66851,-8.668513 z M 111.44626,-3.6184861e-6 116.02897,4.5823997 111.14343,7.8080002 100.36437,18.587058 97.439277,15.661964 108.22095,4.8802897 Z M 93.118985,7.0594918 a 1.5732369,1.5732369 0 0 1 0,-2.2248737 l 0.998111,-0.9978192 a 1.5732369,1.5732369 0 0 1 2.225164,0 l 3.563927,3.5636387 -3.222981,3.2232734 z"
     id="path1-3"
     style="display:inline;fill:#fc7f7f;fill-opacity:1;stroke:none;stroke-width:6.53062;stroke-dasharray:none;stroke-opacity:1;paint-order:stroke fill markers" /></svg>
